HIERARCHY
ROOT Hips
{
  OFFSET 49.6674 100.939 46.1818
  CHANNELS 6 Xposition Yposition Zposition Zrotation Xrotation Yrotation
  JOINT spine
  {
    OFFSET 0 8.81705 0.507024
    CHANNELS 3 Zrotation Xrotation Yrotation
    JOINT spine1
    {
      OFFSET 0 10.7766 0
      CHANNELS 3 Zrotation Xrotation Yrotation
      JOINT spine2
      {
        OFFSET 0 10.3259 0
        CHANNELS 3 Zrotation Xrotation Yrotation
        JOINT Neck
        {
          OFFSET 0 26.511 1.26395
          CHANNELS 3 Zrotation Xrotation Yrotation
          JOINT Head
          {
            OFFSET 0 8.00966 0
            CHANNELS 3 Zrotation Xrotation Yrotation
            End Site
            {
              OFFSET 0 19.3879 -6.39386
            }
          }
        }
        JOINT RightShoulder
        {
          OFFSET -4.34795 11.1512 -0.605422
          CHANNELS 3 Zrotation Xrotation Yrotation
          JOINT RightArm
          {
            OFFSET 0 14.6258 0
            CHANNELS 3 Zrotation Xrotation Yrotation
            JOINT RightArmRoll
            {
              OFFSET 0 7.3834 0
              CHANNELS 3 Zrotation Xrotation Yrotation
              JOINT RightForeArm
              {
                OFFSET 0 21.5052 0
                CHANNELS 3 Zrotation Xrotation Yrotation
                JOINT RightForeArmRoll
                {
                  OFFSET 0 8.28532 0
                  CHANNELS 3 Zrotation Xrotation Yrotation
                  JOINT RightHand
                  {
                    OFFSET 0 16.6268 0
                    CHANNELS 3 Zrotation Xrotation Yrotation
                    End Site
                    {
                      OFFSET 0 0 0
                    }
                  }
                }
              }
            }
          }
        }
        JOINT LeftShoulder
        {
          OFFSET 4.34795 11.1512 -0.605422
          CHANNELS 3 Zrotation Xrotation Yrotation
          JOINT LeftArm
          {
            OFFSET 0 14.6258 0
            CHANNELS 3 Zrotation Xrotation Yrotation
            JOINT LeftArmRoll
            {
              OFFSET 0 7.3834 0
              CHANNELS 3 Zrotation Xrotation Yrotation
              JOINT LeftForeArm
              {
                OFFSET 0 21.5052 0
                CHANNELS 3 Zrotation Xrotation Yrotation
                JOINT LeftForeArmRoll
                {
                  OFFSET 0 8.28532 0
                  CHANNELS 3 Zrotation Xrotation Yrotation
                  JOINT LeftHand
                  {
                    OFFSET 0 16.6268 0
                    CHANNELS 3 Zrotation Xrotation Yrotation
                    End Site
                    {
                      OFFSET 0 0 0
                    }
                  }
                }
              }
            }
          }
        }
      }
    }
  }
  JOINT RightUpLeg
  {
    OFFSET -7.8151 -1.43309 -1.20217
    CHANNELS 3 Zrotation Xrotation Yrotation
    JOINT RightUpLegRoll
    {
      OFFSET 0 19.4959 0
      CHANNELS 3 Zrotation Xrotation Yrotation
      JOINT RightLeg
      {
        OFFSET 0 -24.1427 0
        CHANNELS 3 Zrotation Xrotation Yrotation
        JOINT RightLegRoll
        {
          OFFSET 0 24.2217 0
          CHANNELS 3 Zrotation Xrotation Yrotation
          JOINT RightFoot
          {
            OFFSET 0 20.1605 0
            CHANNELS 3 Zrotation Xrotation Yrotation
            JOINT RightToeBase
            {
              OFFSET 0 16.8532 0
              CHANNELS 3 Zrotation Xrotation Yrotation
              End Site
              {
                OFFSET 0.00714343 8.16187 -0.94078
              }
            }
          }
        }
      }
    }
  }
  JOINT LeftUpLeg
  {
    OFFSET 7.8151 -1.43309 -1.20217
    CHANNELS 3 Zrotation Xrotation Yrotation
    JOINT LeftUpLegRoll
    {
      OFFSET 0 19.496 0
      CHANNELS 3 Zrotation Xrotation Yrotation
      JOINT LeftLeg
      {
        OFFSET 0 24.1426 0
        CHANNELS 3 Zrotation Xrotation Yrotation
        JOINT LeftLegRoll
        {
          OFFSET 0 24.4456 0
          CHANNELS 3 Zrotation Xrotation Yrotation
          JOINT LeftFoot
          {
            OFFSET 0 19.9366 0
            CHANNELS 3 Zrotation Xrotation Yrotation
            JOINT LeftToeBase
            {
              OFFSET 0 16.8532 0
              CHANNELS 3 Zrotation Xrotation Yrotation
              End Site
              {
                OFFSET -0.0320138 8.16186 -0.940781
              }
            }
          }
        }
      }
    }
  }
}
MOTION
Frames: 5
Frame Time: 0.00208333
50.6248 69.4334 19.6086 -1.24771 36.5007 2.91015 0.555948 1.89493 -0.133328 1.12556 7.79064 -0.358753 1.13289 9.43553 -0.378532 -5.62106 -0.493145 0.399325 -2.34096 -8.43691 -0.712192 39.7221 -5.41963 -2.0975 125.999 13.1569 -37.3263 -7.12451e-006 -4.8509e-007 2.60254e-008 8.56562 75.0063 -7.63991 -2.27797e-006 2.80246e-006 -3.00551 8.02883 -4.95141 0.697646 -49.9549 -7.91803 4.65126 -118.312 19.671 38.7159 3.33246e-007 -1.27222e-014 -7.60592e-007 -14.7065 67.443 11.6969 4.27323e-006 9.48931e-006 3.00974 -8.02895 -4.95146 -0.697666 31.0823 70.8033 149.55 180 1.52579e-005 179.369 144.442 81.6126 -150.047 -2.67945e-006 -4.48744e-006 1.27031 -29.9691 75.5212 29.6576 8.13621 25.2343 -3.47929 -7.27574 74.744 -174.149 4.54188e-006 -4.6773e-006 -0.748691 -6.42169 -87.1122 -4.81139 2.66882e-006 -8.29956e-006 -1.77438 41.4241 80.0901 -43.1597 -8.15337 25.6492 3.50083 
50.6189 69.6035 19.6572 -1.24835 36.4509 2.90366 0.554078 1.8861 -0.133948 1.12181 7.77298 -0.36 1.12914 9.41788 -0.379716 -5.68355 -0.506282 0.396819 -2.29984 -8.44999 -0.714698 39.7456 -5.41589 -2.09596 126.051 13.4091 -37.1163 -7.12451e-006 -4.8509e-007 2.60254e-008 9.23595 74.6048 -8.09688 -2.27797e-006 2.80246e-006 -3.00551 8.02883 -4.95141 0.697646 -50.0532 -7.90236 4.64299 -118.299 19.8303 38.5204 3.33246e-007 0 -7.60592e-007 -14.9582 67.1783 11.8112 4.27323e-006 9.48931e-006 3.00974 -8.02895 -4.95146 -0.697666 31.439 71.0591 149.174 180 1.52579e-005 179.369 145.14 81.4316 -150.759 -2.67945e-006 -4.48744e-006 1.26609 -30.006 75.542 29.7003 8.13621 25.2343 -3.47929 -7.47464 75.0153 -173.929 4.54188e-006 -4.6773e-006 -0.747636 -6.54928 -86.8923 -4.90965 2.66882e-006 -8.29956e-006 -1.76865 41.4446 80.0896 -43.1683 -8.15387 25.6562 3.50092 
50.6184 69.7646 19.7239 -1.24818 36.4006 2.89667 0.551902 1.87703 -0.134571 1.11746 7.75483 -0.361289 1.12479 9.39973 -0.380932 -5.74236 -0.514648 0.396376 -2.26376 -8.46901 -0.715905 39.7699 -5.41376 -2.09588 126.102 13.6624 -36.9094 -7.12451e-006 -4.8509e-007 2.60254e-008 9.86526 74.1901 -8.51246 -2.27797e-006 2.80246e-006 -3.00551 8.02883 -4.95141 0.697646 -50.1502 -7.88623 4.6344 -118.288 19.9857 38.3216 3.33246e-007 0 -7.60592e-007 -15.2069 66.9176 11.9242 4.27323e-006 9.48931e-006 3.00974 -8.02895 -4.95146 -0.697666 31.8067 71.3151 148.787 180 1.52579e-005 179.37 145.816 81.2479 -151.45 -2.67945e-006 -4.48744e-006 1.26185 -30.0408 75.5616 29.7408 8.13621 25.2343 -3.47929 -7.68219 75.2876 -173.7 4.54188e-006 -4.6773e-006 -0.746605 -6.66655 -86.6709 -4.99729 2.66882e-006 -8.29956e-006 -1.76285 41.4622 80.0884 -43.1737 -8.15438 25.6633 3.50093 
50.6097 69.9302 19.7869 -1.24736 36.3498 2.88923 0.549461 1.86773 -0.135212 1.11259 7.73623 -0.362638 1.11992 9.38113 -0.3822 -5.79784 -0.519184 0.397772 -2.23213 -8.49267 -0.715907 39.7954 -5.41291 -2.09697 126.152 13.9167 -36.7056 -7.12451e-006 -4.8509e-007 2.60254e-008 10.4564 73.7633 -8.88966 -2.27797e-006 2.80246e-006 -3.00551 8.02883 -4.95141 0.697646 -50.246 -7.86982 4.62562 -118.279 20.1378 38.1199 3.33246e-007 -1.59028e-014 -7.60592e-007 -15.4518 66.6596 12.0348 4.27323e-006 9.48931e-006 3.00974 -8.02895 -4.95146 -0.697666 32.1858 71.5712 148.388 180 1.52579e-005 179.37 146.471 81.0616 -152.119 -2.67945e-006 -4.48744e-006 1.25758 -30.0734 75.5801 29.7789 8.13621 25.2343 -3.47929 -7.89916 75.5609 -173.462 4.54188e-006 -4.6773e-006 -0.745597 -6.77456 -86.448 -5.07541 2.66882e-006 -8.29956e-006 -1.75698 41.4769 80.0865 -43.1757 -8.15489 25.6705 3.50086 
50.6062 70.0888 19.8492 -1.24605 36.2982 2.88138 0.546801 1.85822 -0.135884 1.10729 7.71723 -0.364066 1.11461 9.36212 -0.383539 -5.85039 -0.520832 0.400783 -2.20433 -8.51969 -0.714795 39.8222 -5.41296 -2.09896 126.201 14.1717 -36.505 -7.12451e-006 -4.8509e-007 2.60254e-008 11.0122 73.3257 -9.23141 -2.27797e-006 2.80246e-006 -3.00551 8.02883 -4.95141 0.697646 -50.3407 -7.8533 4.61677 -118.272 20.2868 37.9158 3.33246e-007 1.27222e-014 -7.60592e-007 -15.6921 66.4032 12.1418 4.27323e-006 9.48931e-006 3.00974 -8.02895 -4.95146 -0.697666 32.577 71.8276 147.976 180 1.52579e-005 179.371 147.106 80.8725 -152.767 -2.67945e-006 -4.48744e-006 1.2533 -30.1041 75.5974 29.8149 8.13621 25.2343 -3.47929 -8.12636 75.8352 -173.214 4.54188e-006 -4.6773e-006 -0.744612 -6.87406 -86.2237 -5.14481 2.66882e-006 -8.29956e-006 -1.75105 41.4883 80.0838 -43.1742 -8.15542 25.6778 3.50074 
